<?xml version="1.0" encoding="UTF-8"?><svg xmlns="http://www.w3.org/2000/svg" viewBox="0 0 404.37 347.73"><defs><style>.d{fill:#231f20;}</style></defs><g id="a"/><g id="b"><g id="c"><g><polygon class="d" points="299.37 242.91 266.25 242.91 203.41 133.54 203.24 133.82 203.19 133.73 186.62 104.88 186.61 104.88 186.56 104.78 169.99 75.95 159.52 57.72 50.68 242.91 71.85 242.91 55.02 271.55 24.04 271.59 23.85 271.91 0 271.91 159.8 0 186.9 47.17 203.47 76 203.52 76.1 203.53 76.11 220.1 104.95 299.37 242.91"/><polygon class="d" points="357.44 271.91 357.86 271.19 349.33 271.2 315.97 271.24 315.64 271.24 282.55 271.28 166.77 271.41 166.76 271.43 122.34 271.48 139.13 242.91 354.26 242.91 247.86 57.72 237.06 76.1 220.47 47.28 247.67 1 247.55 1 248.14 0 404.37 271.91 357.44 271.91"/><polygon class="d" points="359.92 347.73 43.89 347.73 71.63 300.53 88.45 271.91 88.68 271.52 105.49 242.91 150.84 165.74 150.85 165.74 186.62 104.88 203.19 133.73 139.02 242.91 139.13 242.91 122.34 271.48 122.09 271.91 105.29 300.49 94.57 318.73 309.81 318.73 299.19 300.25 332.62 300.21 359.92 347.73"/></g></g></g></svg>